PathFileType	4	(X/Y/Z)	/Users/itak/Documents/Research/Walk-IL/dataset/trc/00050_00006.trc
DataRate	CameraRate	NumFrames	NumMarkers	Units	OrigDataRate	OrigDataStartFrame	OrigNumFrames
100.000000	100.000000	4	53	mm	100.000000	64	513
Frame#	Time	RPSI			LPSI			L3			STRN			T10			C7			CLAV			RBAK			LBAK			LSHO			LUPA			LAEL			LAOL			LWTS			LWPS			LFRA			LIFD			LHPS			LHTS			RSHO			RUPA			RAEL			RAOL			RWTS			RWPS			RFRA			RIFD			RHTS			RHPS			RBHD			LFHD			RFHD			LBHD			LHIP			RHIP			RASI			LASI			LKNE			LTHI			LANK			LTIP			LTOE			LMT1			LMT5			LHEE			RKNE			RTHI			RANK			RTIP			RTOE			RMT1			RMT5			RHEE			
		X1	Y1	Z1	X2	Y2	Z2	X3	Y3	Z3	X4	Y4	Z4	X5	Y5	Z5	X6	Y6	Z6	X7	Y7	Z7	X8	Y8	Z8	X9	Y9	Z9	X10	Y10	Z10	X11	Y11	Z11	X12	Y12	Z12	X13	Y13	Z13	X14	Y14	Z14	X15	Y15	Z15	X16	Y16	Z16	X17	Y17	Z17	X18	Y18	Z18	X19	Y19	Z19	X20	Y20	Z20	X21	Y21	Z21	X22	Y22	Z22	X23	Y23	Z23	X24	Y24	Z24	X25	Y25	Z25	X26	Y26	Z26	X27	Y27	Z27	X28	Y28	Z28	X29	Y29	Z29	X30	Y30	Z30	X31	Y31	Z31	X32	Y32	Z32	X33	Y33	Z33	X34	Y34	Z34	X35	Y35	Z35	X36	Y36	Z36	X37	Y37	Z37	X38	Y38	Z38	X39	Y39	Z39	X40	Y40	Z40	X41	Y41	Z41	X42	Y42	Z42	X43	Y43	Z43	X44	Y44	Z44	X45	Y45	Z45	X46	Y46	Z46	X47	Y47	Z47	X48	Y48	Z48	X49	Y49	Z49	X50	Y50	Z50	X51	Y51	Z51	X52	Y52	Z52	X53	Y53	Z53	

65	0.64	905.1568603515625	1021.272033691406	-206.3030700683594	887.2418823242188	1013.03955078125	-382.6788635253906	899.794677734375	1073.308959960938	-301.2407836914062	1143.945922851562	1271.733642578125	-307.9691467285156	877.226318359375	1208.1279296875	-305.1631164550781	934.6397094726562	1474.92822265625	-316.9451293945312	1113.63427734375	1385.93212890625	-313.4942626953125	873.0316162109375	1338.87646484375	-236.3132476806641	912.7850341796875	1433.976440429688	-416.7670593261719	1016.643920898438	1435.215209960938	-489.4294738769531	1002.695922851562	1305.588012695312	-563.2988891601562	1030.273559570312	1090.30517578125	-574.6160888671875	966.6769409179688	1076.663940429688	-490.2068481445312	1124.81201171875	853.81396484375	-504.9562072753906	1067.771728515625	840.9887084960938	-565.731689453125	1053.027099609375	981.5311279296875	-579.2015380859375	1139.659790039062	666.919677734375	-484.7506408691406	1101.603881835938	760.5077514648438	-559.6492919921875	1147.68798828125	771.2183227539062	-506.1158752441406	1001.939270019531	1442.958129882812	-139.0172119140625	992.6573486328125	1374.995361328125	-73.4862060546875	971.5054931640625	1107.255859375	-45.23714828491211	984.5017700195312	1086.271850585938	-141.8245086669922	1115.0419921875	858.3753051757812	-89.77079010009766	1048.60595703125	842.16357421875	-36.16208267211914	986.5556640625	1028.09130859375	-39.06597900390625	1124.602661132812	671.457275390625	-110.4487686157227	1141.144287109375	757.2001342773438	-92.29874420166016	1088.39501953125	752.3683471679688	-35.9525146484375	972.021484375	1650.4287109375	-388.2669372558594	1125.119140625	1688.423217773438	-239.8218536376953	1142.969970703125	1696.194702148438	-364.547119140625	961.56689453125	1635.544067382812	-251.7765350341797	995.18115234375	946.7876586914062	-470.4832763671875	974.8859252929688	954.2574462890625	-129.0789642333984	1098.457763671875	970.3753051757812	-155.5836944580078	1107.041137695312	958.1279907226562	-423.9137878417969	1059.760986328125	485.4761657714844	-426.7040100097656	1031.139770507812	626.08056640625	-460.9804077148438	902.6746215820312	41.11374664306641	-444.7215270996094	972.6581420898438	249.8853302001953	-449.7760620117188	1107.531127929688	32.04287338256836	-453.4576721191406	1062.5068359375	31.72016143798828	-396.0826721191406	1002.3671875	31.46368598937988	-490.4053344726562	855.4949951171875	37.6678466796875	-365.9454040527344	1036.00439453125	506.9401245117188	-153.9711608886719	1053.8759765625	779.0731201171875	-122.7347412109375	936.2894287109375	35.12838363647461	-158.6911926269531	1010.371826171875	386.4269409179688	-149.2493133544922	1153.022583007812	28.37382507324219	-196.5880889892578	1091.32275390625	34.32600402832031	-236.5455322265625	1061.143310546875	36.27653884887695	-143.6339416503906	888.085205078125	36.78436279296875	-215.0143432617188	
66	0.65	905.5402221679688	1021.299621582031	-206.327392578125	887.2471313476562	1013.049865722656	-382.7356567382812	899.857177734375	1073.278076171875	-301.3229675292969	1143.969360351562	1271.748657226562	-308.0635681152344	877.2328491210938	1208.080932617188	-305.2376403808594	934.58447265625	1474.906494140625	-317.1235961914062	1113.63671875	1385.936645507812	-313.5987854003906	873.0609130859375	1338.85302734375	-236.3921356201172	912.7938842773438	1433.927612304688	-416.870849609375	1016.630432128906	1435.15869140625	-489.5335998535156	1002.667602539062	1305.5166015625	-563.3811645507812	1030.27880859375	1090.227905273438	-574.596435546875	966.7174072265625	1076.609008789062	-490.1568908691406	1124.95166015625	853.8504638671875	-504.7694702148438	1067.89453125	840.92333984375	-565.5116577148438	1053.094482421875	981.4241333007812	-579.0927734375	1139.86669921875	666.8781127929688	-484.3434143066406	1101.76904296875	760.4769897460938	-559.345458984375	1147.86669921875	771.2938842773438	-505.8324279785156	1001.914001464844	1442.995971679688	-139.1316833496094	992.6632690429688	1375.040649414062	-73.58603668212891	971.7398071289062	1107.312377929688	-45.21723937988281	984.5985717773438	1086.303588867188	-141.8838500976562	1115.177734375	858.4619140625	-89.78349304199219	1048.728149414062	842.23583984375	-36.19364166259766	986.6451416015625	1028.151245117188	-39.10852432250977	1124.788818359375	671.5084838867188	-110.5031051635742	1141.326171875	757.2782592773438	-92.20883941650391	1088.682373046875	752.4760131835938	-35.88507461547852	972.0279541015625	1650.445922851562	-388.4129638671875	1125.218627929688	1688.412475585938	-240.0048370361328	1142.999877929688	1696.102294921875	-364.7864685058594	961.5612182617188	1635.594116210938	-251.9284820556641	995.16845703125	946.7775268554688	-470.5369567871094	974.9288330078125	954.2686767578125	-129.1190338134766	1098.495849609375	970.39599609375	-155.6011657714844	1107.100830078125	958.1069946289062	-423.9403686523438	1059.751586914062	485.4725341796875	-426.7083740234375	1031.179809570312	626.0723266601562	-460.9891967773438	902.6743774414062	41.11245346069336	-444.7244567871094	972.6571655273438	249.8867645263672	-449.7778625488281	1107.527221679688	32.03366088867188	-453.4506225585938	1062.505126953125	31.7211742401123	-396.0811767578125	1002.368225097656	31.46077919006348	-490.404541015625	855.4869995117188	37.66325378417969	-365.9453735351562	1036.011108398438	506.9486083984375	-153.9681701660156	1053.890502929688	779.0995483398438	-122.7503433227539	936.2860717773438	35.12411117553711	-158.7010803222656	1010.368347167969	386.4325256347656	-149.2621459960938	1153.0234375	28.37598991394043	-196.5899200439453	1091.320190429688	34.32898330688477	-236.5432586669922	1061.143676757812	36.27508926391602	-143.6298675537109	888.087158203125	36.79166412353516	-215.0155029296875	
67	0.66	905.8712158203125	1021.326232910156	-206.3552856445312	887.2589111328125	1013.057861328125	-382.7870178222656	899.919677734375	1073.244750976562	-301.39892578125	1143.993041992188	1271.766479492188	-308.1616516113281	877.2356567382812	1208.032104492188	-305.3075256347656	934.5331420898438	1474.887817382812	-317.3044738769531	1113.64111328125	1385.941772460938	-313.7049865722656	873.0885009765625	1338.824584960938	-236.46728515625	912.8046264648438	1433.878173828125	-416.9769592285156	1016.617797851562	1435.098754882812	-489.6382446289062	1002.640625	1305.4375	-563.4605712890625	1030.284545898438	1090.1435546875	-574.57080078125	966.7601318359375	1076.5458984375	-490.1012573242188	1125.094482421875	853.8824462890625	-504.5802917480469	1068.028564453125	840.856689453125	-565.2907104492188	1053.158447265625	981.3115844726562	-578.97705078125	1140.077758789062	666.84716796875	-483.9339904785156	1101.9384765625	760.4436645507812	-559.0367431640625	1148.053100585938	771.3754272460938	-505.5563659667969	1001.887878417969	1443.031616210938	-139.2447204589844	992.6685791015625	1375.0869140625	-73.68447875976562	971.9512329101562	1107.369018554688	-45.20149993896484	984.6954345703125	1086.335083007812	-141.9380798339844	1115.30810546875	858.5475463867188	-89.7945556640625	1048.842163085938	842.3094482421875	-36.22411727905273	986.7296752929688	1028.211303710938	-39.14715194702148	1124.958374023438	671.5363159179688	-110.543586730957	1141.485961914062	757.3403930664062	-92.10338592529297	1088.94677734375	752.580322265625	-35.82725143432617	972.0172729492188	1650.457641601562	-388.553466796875	1125.33203125	1688.41552734375	-240.2162475585938	1143.021850585938	1696.009399414062	-365.0145568847656	961.5504760742188	1635.640014648438	-252.0815582275391	995.1567993164062	946.7670288085938	-470.5884704589844	974.973388671875	954.2800903320312	-129.1571655273438	1098.532958984375	970.415771484375	-155.6185455322266	1107.15869140625	958.082763671875	-423.9666137695312	1059.742431640625	485.4782409667969	-426.719482421875	1031.202514648438	626.0660400390625	-461.0005798339844	902.6754150390625	41.11172103881836	-444.7258605957031	972.6502075195312	249.8881988525391	-449.7817993164062	1107.523193359375	32.02216339111328	-453.4423217773438	1062.503173828125	31.72259140014648	-396.0792236328125	1002.369140625	31.45832633972168	-490.4039611816406	855.4788818359375	37.65879440307617	-365.9452514648438	1036.013793945312	506.9555053710938	-153.9671783447266	1053.906494140625	779.1220092773438	-122.7661666870117	936.2835083007812	35.12152481079102	-158.7068481445312	1010.358032226562	386.4400634765625	-149.2665252685547	1153.02392578125	28.37776184082031	-196.5919494628906	1091.317138671875	34.33163833618164	-236.5413513183594	1061.143920898438	36.2738151550293	-143.6256561279297	888.0879516601562	36.79707717895508	-215.0143280029297	
68	0.67	906.1384887695312	1021.351013183594	-206.3878936767578	887.2770385742188	1013.063232421875	-382.8343811035156	899.981689453125	1073.209838867188	-301.4685974121094	1144.017944335938	1271.788208007812	-308.263671875	877.2407836914062	1207.98193359375	-305.3723754882812	934.4888916015625	1474.872680664062	-317.4840698242188	1113.647705078125	1385.94873046875	-313.8134155273438	873.1148681640625	1338.792114257812	-236.5385437011719	912.816650390625	1433.828247070312	-417.0840759277344	1016.606384277344	1435.03662109375	-489.7437744140625	1002.615539550781	1305.350341796875	-563.536376953125	1030.289916992188	1090.051635742188	-574.5396728515625	966.8056030273438	1076.47412109375	-490.0408935546875	1125.239013671875	853.9058837890625	-504.3861389160156	1068.176513671875	840.789794921875	-565.0693969726562	1053.216918945312	981.1945190429688	-578.8563232421875	1140.297119140625	666.8353881835938	-483.5279541015625	1102.110107421875	760.405517578125	-558.7247924804688	1148.246337890625	771.4586181640625	-505.2901611328125	1001.863220214844	1443.0654296875	-139.3565368652344	992.6751098632812	1375.134033203125	-73.78101348876953	972.1310424804688	1107.425415039062	-45.19336318969727	984.7919311523438	1086.36572265625	-141.9855346679688	1115.433349609375	858.6318359375	-89.80445098876953	1048.947998046875	842.3831787109375	-36.2531623840332	986.8084106445312	1028.2705078125	-39.18140411376953	1125.117309570312	671.5458374023438	-110.5655364990234	1141.627075195312	757.390625	-91.99172210693359	1089.187622070312	752.6807250976562	-35.77908706665039	971.9906616210938	1650.464233398438	-388.6900024414062	1125.452758789062	1688.4306640625	-240.4553527832031	1143.03564453125	1695.91943359375	-365.2264709472656	961.5382690429688	1635.682006835938	-252.2337799072266	995.1235961914062	946.757568359375	-470.6415405273438	975.0191040039062	954.2913208007812	-129.1943664550781	1098.5673828125	970.433837890625	-155.635986328125	1107.21826171875	958.058837890625	-423.9952392578125	1059.73388671875	485.4920959472656	-426.7364196777344	1031.213134765625	626.0615234375	-461.0144653320312	902.6786499023438	41.11140823364258	-444.7256469726562	972.6377563476562	249.8896026611328	-449.7879333496094	1107.519165039062	32.00907897949219	-453.4332580566406	1062.501220703125	31.72423934936523	-396.0771789550781	1002.369873046875	31.45639228820801	-490.4036254882812	855.4716186523438	37.65489196777344	-365.945068359375	1036.012817382812	506.9605407714844	-153.9691162109375	1053.924438476562	779.1414794921875	-122.7827606201172	936.2819213867188	35.12040710449219	-158.7092590332031	1010.342956542969	386.4485168457031	-149.2652282714844	1153.024169921875	28.37881278991699	-196.5941619873047	1091.313842773438	34.33393478393555	-236.5396881103516	1061.143920898438	36.27275466918945	-143.6214752197266	888.0880126953125	36.80087280273438	-215.0115203857422	
